<svg width="36" height="36" viewBox="0 0 36 36" fill="none" xmlns="http://www.w3.org/2000/svg">
<path d="M35.1621 20.1179C36.2793 18.9465 36.2793 17.0441 35.1621 15.8727L20.8613 0.878563C19.744 -0.292854 17.9296 -0.292854 16.8124 0.878563C15.6951 2.04998 15.6951 3.95236 16.8124 5.12378L26.2419 15.0012C26.2419 15.0012 4.44218 15.0012 2.86016 15.0012C1.27813 15.0012 0 16.3413 0 18C0 19.6587 1.27813 20.9988 2.86016 20.9988H26.233L16.8213 30.8762C15.7041 32.0476 15.7041 33.95 16.8213 35.1214C17.9386 36.2929 19.753 36.2929 20.8702 35.1214L35.171 20.1273L35.1621 20.1179Z" fill="#0A2640"/>
</svg>
