<svg width="36" height="36" viewBox="0 0 36 36" fill="none" xmlns="http://www.w3.org/2000/svg">
<path d="M0.837938 15.8821C-0.279311 17.0535 -0.279311 18.9559 0.837938 20.1273L15.1387 35.1214C16.256 36.2929 18.0704 36.2929 19.1876 35.1214C20.3049 33.95 20.3049 32.0476 19.1876 30.8762L9.75806 20.9988C9.75806 20.9988 31.5578 20.9988 33.1398 20.9988C34.7219 20.9988 36 19.6587 36 18C36 16.3413 34.7219 15.0012 33.1398 15.0012L9.76699 15.0012L19.1787 5.12378C20.296 3.95237 20.296 2.04998 19.1787 0.878561C18.0615 -0.292856 16.247 -0.292856 15.1298 0.878561L0.829 15.8727L0.837938 15.8821Z" fill="#0A2640"/>
</svg>
