<svg width="146" height="38" viewBox="0 0 146 38" fill="none" xmlns="http://www.w3.org/2000/svg">
<path d="M36.1501 4.33904H46.5038C48.172 4.33904 49.5863 4.68356 50.7468 5.3726C51.9073 6.04955 52.7716 6.93804 53.3398 8.03809C53.9079 9.12604 54.192 10.2865 54.192 11.5195C54.192 12.6921 53.9623 13.7257 53.503 14.6202C53.0436 15.5027 52.4029 16.1917 51.5809 16.6873C52.8018 17.2071 53.7447 18.005 54.4096 19.0808C55.0745 20.1446 55.4069 21.3474 55.4069 22.6892C55.4069 24.2486 55.1047 25.6146 54.5003 26.7872C53.9079 27.9477 53.0194 28.8482 51.8348 29.4889C50.6622 30.1296 49.2358 30.45 47.5555 30.45H36.1501V4.33904ZM47.0115 26.3339C47.7731 26.3339 48.4561 26.1828 49.0605 25.8805C49.6649 25.5662 50.1363 25.125 50.4748 24.5569C50.8254 23.9887 51.0007 23.3238 51.0007 22.5623C51.0007 21.8612 50.8435 21.2265 50.5292 20.6584C50.227 20.0902 49.7858 19.649 49.2055 19.3347C48.6253 19.0083 47.9363 18.8451 47.1384 18.8451H40.5744V26.3339H47.0115ZM46.4494 14.7653C47.4165 14.7653 48.2083 14.4872 48.8248 13.9312C49.4413 13.3751 49.7495 12.5954 49.7495 11.5921C49.7495 10.6613 49.4534 9.8997 48.861 9.30737C48.2687 8.71504 47.4648 8.41887 46.4494 8.41887H40.5744V14.7653H46.4494ZM67.6775 30.9939C65.7434 30.9939 64.0389 30.5587 62.5642 29.6884C61.0894 28.8059 59.947 27.585 59.1371 26.0256C58.3393 24.4541 57.9403 22.665 57.9403 20.6584C57.9403 18.6275 58.3453 16.8324 59.1552 15.273C59.9772 13.7015 61.1256 12.4866 62.6004 11.6283C64.0752 10.758 65.7676 10.3228 67.6775 10.3228C69.6238 10.3228 71.3343 10.764 72.8091 11.6465C74.2838 12.5168 75.4262 13.7378 76.2361 15.3092C77.046 16.8687 77.451 18.6517 77.451 20.6584C77.451 22.6771 77.04 24.4722 76.218 26.0437C75.4081 27.6031 74.2597 28.818 72.7728 29.6884C71.298 30.5587 69.5996 30.9939 67.6775 30.9939ZM62.5642 20.6584C62.5642 22.6046 62.9993 24.1338 63.8697 25.2459C64.7521 26.3459 66.0214 26.896 67.6775 26.896C69.3578 26.896 70.6331 26.3339 71.5035 25.2096C72.386 24.0854 72.8272 22.5683 72.8272 20.6584C72.8272 18.7242 72.386 17.2011 71.5035 16.0889C70.6331 14.9768 69.3578 14.4208 67.6775 14.4208C65.9731 14.4208 64.6917 14.9829 63.8334 16.1071C62.9872 17.2192 62.5642 18.7363 62.5642 20.6584ZM81.8088 4.33904H86.1787V30.45H81.8088V4.33904ZM99.4617 30.9939C97.6968 30.9939 96.1313 30.5467 94.7653 29.6521C93.4114 28.7455 92.3658 27.5125 91.6284 25.9531C90.891 24.3816 90.5223 22.6167 90.5223 20.6584C90.5223 18.6759 90.8971 16.9049 91.6465 15.3455C92.396 13.774 93.4598 12.5471 94.8379 11.6646C96.2159 10.7701 97.8116 10.3228 99.6249 10.3228C101.511 10.3228 103.137 10.8245 104.503 11.8278V4.33904H108.909V30.45H105.047V28.9993C103.584 30.3291 101.722 30.9939 99.4617 30.9939ZM95.1461 20.6584C95.1461 21.8914 95.3275 22.9914 95.6901 23.9585C96.0648 24.9256 96.6209 25.6871 97.3583 26.2432C98.1078 26.7993 99.0325 27.0773 100.133 27.0773C101.813 27.0773 103.052 26.5091 103.85 25.3728C104.648 24.2244 105.047 22.6529 105.047 20.6584C105.047 18.6638 104.654 17.0983 103.868 15.962C103.082 14.8136 101.885 14.2394 100.278 14.2394C99.1413 14.2394 98.1864 14.5235 97.4127 15.0917C96.6511 15.6477 96.083 16.4093 95.7082 17.3764C95.3335 18.3434 95.1461 19.4374 95.1461 20.6584ZM122.642 30.9939C120.708 30.9939 119.003 30.5587 117.529 29.6884C116.054 28.8059 114.911 27.585 114.101 26.0256C113.304 24.4541 112.905 22.665 112.905 20.6584C112.905 18.6275 113.31 16.8324 114.12 15.273C114.942 13.7015 116.09 12.4866 117.565 11.6283C119.04 10.758 120.732 10.3228 122.642 10.3228C124.588 10.3228 126.299 10.764 127.773 11.6465C129.248 12.5168 130.391 13.7378 131.2 15.3092C132.01 16.8687 132.415 18.6517 132.415 20.6584C132.415 22.6771 132.004 24.4722 131.182 26.0437C130.372 27.6031 129.224 28.818 127.737 29.6884C126.262 30.5587 124.564 30.9939 122.642 30.9939ZM117.529 20.6584C117.529 22.6046 117.964 24.1338 118.834 25.2459C119.717 26.3459 120.986 26.896 122.642 26.896C124.322 26.896 125.598 26.3339 126.468 25.2096C127.35 24.0854 127.792 22.5683 127.792 20.6584C127.792 18.7242 127.35 17.2011 126.468 16.0889C125.598 14.9768 124.322 14.4208 122.642 14.4208C120.937 14.4208 119.656 14.9829 118.798 16.1071C117.952 17.2192 117.529 18.7363 117.529 20.6584Z" fill="white"/>
<path d="M0.382355 16.45H14.7C19.5833 16.45 23.5421 20.4087 23.5421 25.2921V25.2921C23.5421 30.1754 19.5833 34.1342 14.7 34.1342H0.382355V16.45Z" fill="white"/>
<path d="M0.382355 0.976318H9.86189C13.5244 0.976318 16.4935 3.94538 16.4935 7.6079V7.6079C16.4935 11.2704 13.5244 14.2395 9.86189 14.2395H0.382355V0.976318Z" fill="white"/>
</svg>
