<svg width="163" height="42" viewBox="0 0 163 42" fill="none" xmlns="http://www.w3.org/2000/svg">
<path d="M40.2025 6.86H52.5504C54.5399 6.86 56.2267 7.27087 57.6107 8.09262C58.9947 8.89996 60.0255 9.95958 60.7031 11.2715C61.3806 12.569 61.7194 13.953 61.7194 15.4235C61.7194 16.8219 61.4455 18.0545 60.8977 19.1214C60.3498 20.1738 59.5858 20.9955 58.6054 21.5866C60.0615 22.2065 61.186 23.158 61.9789 24.4411C62.7718 25.7098 63.1683 27.1442 63.1683 28.7445C63.1683 30.6042 62.8079 32.2333 62.0871 33.6317C61.3806 35.0157 60.321 36.0898 58.9082 36.8539C57.5098 37.618 55.8086 38 53.8047 38H40.2025V6.86ZM53.1559 33.0911C54.0642 33.0911 54.8787 32.9109 55.5996 32.5505C56.3204 32.1757 56.8826 31.6495 57.2863 30.9719C57.7044 30.2943 57.9134 29.5014 57.9134 28.5931C57.9134 27.757 57.726 27.0001 57.3512 26.3225C56.9908 25.6449 56.4645 25.1187 55.7725 24.7439C55.0805 24.3546 54.2588 24.16 53.3073 24.16H45.479V33.0911H53.1559ZM52.4855 19.2944C53.6389 19.2944 54.5832 18.9628 55.3184 18.2996C56.0537 17.6365 56.4213 16.7066 56.4213 15.51C56.4213 14.3999 56.0681 13.4917 55.3617 12.7852C54.6553 12.0788 53.6965 11.7256 52.4855 11.7256H45.479V19.2944H52.4855ZM77.8023 38.6488C75.4957 38.6488 73.4629 38.1297 71.7041 37.0917C69.9453 36.0393 68.5829 34.5832 67.617 32.7235C66.6655 30.8493 66.1897 28.7157 66.1897 26.3225C66.1897 23.9005 66.6727 21.7596 67.6386 19.8999C68.6189 18.0257 69.9885 16.5768 71.7473 15.5532C73.5062 14.5152 75.5245 13.9962 77.8023 13.9962C80.1234 13.9962 82.1634 14.5225 83.9222 15.5749C85.6811 16.6129 87.0434 18.069 88.0093 19.9431C88.9753 21.8029 89.4582 23.9293 89.4582 26.3225C89.4582 28.7301 88.9681 30.871 87.9877 32.7451C87.0218 34.6049 85.6522 36.0537 83.879 37.0917C82.1201 38.1297 80.0946 38.6488 77.8023 38.6488ZM71.7041 26.3225C71.7041 28.6436 72.2231 30.4673 73.2611 31.7936C74.3135 33.1055 75.8273 33.7615 77.8023 33.7615C79.8063 33.7615 81.3272 33.0911 82.3652 31.7504C83.4176 30.4096 83.9438 28.6003 83.9438 26.3225C83.9438 24.0158 83.4176 22.1993 82.3652 20.873C81.3272 19.5467 79.8063 18.8835 77.8023 18.8835C75.7696 18.8835 74.2414 19.5539 73.2178 20.8946C72.2087 22.221 71.7041 24.0302 71.7041 26.3225ZM94.6553 6.86H99.8669V38H94.6553V6.86ZM115.708 38.6488C113.603 38.6488 111.736 38.1153 110.107 37.0485C108.493 35.9672 107.246 34.4967 106.366 32.637C105.487 30.7628 105.047 28.658 105.047 26.3225C105.047 23.9582 105.494 21.8461 106.388 19.9864C107.282 18.1122 108.55 16.6489 110.194 15.5965C111.837 14.5297 113.74 13.9962 115.903 13.9962C118.152 13.9962 120.091 14.5945 121.72 15.7911V6.86H126.975V38H122.369V36.27C120.624 37.8558 118.404 38.6488 115.708 38.6488ZM110.562 26.3225C110.562 27.793 110.778 29.1049 111.21 30.2582C111.657 31.4116 112.32 32.3198 113.2 32.983C114.094 33.6462 115.196 33.9777 116.508 33.9777C118.512 33.9777 119.99 33.3002 120.942 31.945C121.893 30.5754 122.369 28.7012 122.369 26.3225C122.369 23.9437 121.9 22.0768 120.963 20.7216C120.026 19.352 118.599 18.6672 116.681 18.6672C115.326 18.6672 114.187 19.006 113.265 19.6836C112.356 20.3468 111.679 21.255 111.232 22.4084C110.785 23.5617 110.562 24.8664 110.562 26.3225ZM143.353 38.6488C141.046 38.6488 139.014 38.1297 137.255 37.0917C135.496 36.0393 134.134 34.5832 133.168 32.7235C132.216 30.8493 131.74 28.7157 131.74 26.3225C131.74 23.9005 132.223 21.7596 133.189 19.8999C134.17 18.0257 135.539 16.5768 137.298 15.5532C139.057 14.5152 141.075 13.9962 143.353 13.9962C145.674 13.9962 147.714 14.5225 149.473 15.5749C151.232 16.6129 152.594 18.069 153.56 19.9431C154.526 21.8029 155.009 23.9293 155.009 26.3225C155.009 28.7301 154.519 30.871 153.538 32.7451C152.573 34.6049 151.203 36.0537 149.43 37.0917C147.671 38.1297 145.645 38.6488 143.353 38.6488ZM137.255 26.3225C137.255 28.6436 137.774 30.4673 138.812 31.7936C139.864 33.1055 141.378 33.7615 143.353 33.7615C145.357 33.7615 146.878 33.0911 147.916 31.7504C148.968 30.4096 149.495 28.6003 149.495 26.3225C149.495 24.0158 148.968 22.1993 147.916 20.873C146.878 19.5467 145.357 18.8835 143.353 18.8835C141.32 18.8835 139.792 19.5539 138.769 20.8946C137.759 22.221 137.255 24.0302 137.255 26.3225Z" fill="white"/>
<path d="M0 21H17.0678C21.9511 21 25.9099 24.9587 25.9099 29.8421C25.9099 34.7255 21.9511 38.6842 17.0678 38.6842H0V21Z" fill="#65E4A3"/>
<path d="M0 5.52637H11.3927C15.0552 5.52637 18.0243 8.49543 18.0243 12.1579C18.0243 15.8205 15.0552 18.7895 11.3927 18.7895H0V5.52637Z" fill="#65E4A3"/>
</svg>
